<mxfile host="app.diagrams.net" modified="2021-10-14T01:37:59.315Z" agent="5.0 (Windows NT 10.0; Win64; x64) AppleWebKit/537.36 (KHTML, like Gecko) Chrome/93.0.4577.82 Safari/537.36" etag="EpbhAi_5R-tCaXLjRejb" version="15.1.4" type="github">
  <diagram id="bieZgtheMTXwpIgiuVCQ" name="Page-1">
    <mxGraphModel dx="1328" dy="802" grid="1" gridSize="10" guides="1" tooltips="1" connect="1" arrows="1" fold="1" page="1" pageScale="1" pageWidth="827" pageHeight="1169" math="0" shadow="0">
      <root>
        <mxCell id="0" />
        <mxCell id="1" parent="0" />
        <mxCell id="_wXYsNPeZPBhzeHZ1bPc-1" value="callback" style="rounded=1;whiteSpace=wrap;html=1;fillColor=#fff2cc;strokeColor=#d6b656;" vertex="1" parent="1">
          <mxGeometry x="240" y="340" width="120" height="60" as="geometry" />
        </mxCell>
        <mxCell id="_wXYsNPeZPBhzeHZ1bPc-2" value="" style="edgeStyle=orthogonalEdgeStyle;rounded=0;orthogonalLoop=1;jettySize=auto;html=1;" edge="1" parent="1" source="_wXYsNPeZPBhzeHZ1bPc-3" target="_wXYsNPeZPBhzeHZ1bPc-7">
          <mxGeometry relative="1" as="geometry" />
        </mxCell>
        <mxCell id="_wXYsNPeZPBhzeHZ1bPc-3" value="mainlooper" style="rounded=1;whiteSpace=wrap;html=1;fillColor=#d5e8d4;strokeColor=#82b366;" vertex="1" parent="1">
          <mxGeometry x="880" y="340" width="120" height="60" as="geometry" />
        </mxCell>
        <mxCell id="_wXYsNPeZPBhzeHZ1bPc-4" value="" style="edgeStyle=orthogonalEdgeStyle;rounded=0;orthogonalLoop=1;jettySize=auto;html=1;" edge="1" parent="1" source="_wXYsNPeZPBhzeHZ1bPc-5">
          <mxGeometry relative="1" as="geometry">
            <mxPoint x="520" y="370" as="targetPoint" />
          </mxGeometry>
        </mxCell>
        <mxCell id="_wXYsNPeZPBhzeHZ1bPc-5" value="message" style="rounded=1;whiteSpace=wrap;html=1;fillColor=#dae8fc;strokeColor=#6c8ebf;" vertex="1" parent="1">
          <mxGeometry x="560" y="340" width="120" height="60" as="geometry" />
        </mxCell>
        <mxCell id="_wXYsNPeZPBhzeHZ1bPc-6" value="" style="edgeStyle=orthogonalEdgeStyle;rounded=0;orthogonalLoop=1;jettySize=auto;html=1;" edge="1" parent="1" source="_wXYsNPeZPBhzeHZ1bPc-7" target="_wXYsNPeZPBhzeHZ1bPc-5">
          <mxGeometry relative="1" as="geometry" />
        </mxCell>
        <mxCell id="_wXYsNPeZPBhzeHZ1bPc-7" value="messagequeue" style="rounded=1;whiteSpace=wrap;html=1;fillColor=#dae8fc;strokeColor=#6c8ebf;" vertex="1" parent="1">
          <mxGeometry x="720" y="340" width="120" height="60" as="geometry" />
        </mxCell>
        <mxCell id="_wXYsNPeZPBhzeHZ1bPc-8" value="activity" style="rounded=1;whiteSpace=wrap;html=1;fillColor=#f8cecc;strokeColor=#b85450;" vertex="1" parent="1">
          <mxGeometry x="140" y="260" width="120" height="60" as="geometry" />
        </mxCell>
        <mxCell id="_wXYsNPeZPBhzeHZ1bPc-9" value="callback" style="rounded=1;whiteSpace=wrap;html=1;fillColor=#fff2cc;strokeColor=#d6b656;" vertex="1" parent="1">
          <mxGeometry x="340" y="180" width="120" height="60" as="geometry" />
        </mxCell>
        <mxCell id="_wXYsNPeZPBhzeHZ1bPc-15" value="" style="edgeStyle=orthogonalEdgeStyle;rounded=0;orthogonalLoop=1;jettySize=auto;html=1;" edge="1" parent="1" source="_wXYsNPeZPBhzeHZ1bPc-11" target="_wXYsNPeZPBhzeHZ1bPc-14">
          <mxGeometry relative="1" as="geometry" />
        </mxCell>
        <mxCell id="_wXYsNPeZPBhzeHZ1bPc-11" value="thread" style="rounded=1;whiteSpace=wrap;html=1;fillColor=#d5e8d4;strokeColor=#82b366;" vertex="1" parent="1">
          <mxGeometry x="883" y="180" width="120" height="60" as="geometry" />
        </mxCell>
        <mxCell id="_wXYsNPeZPBhzeHZ1bPc-12" value="" style="edgeStyle=orthogonalEdgeStyle;rounded=0;orthogonalLoop=1;jettySize=auto;html=1;entryX=0.5;entryY=1;entryDx=0;entryDy=0;" edge="1" parent="1" target="_wXYsNPeZPBhzeHZ1bPc-8">
          <mxGeometry relative="1" as="geometry">
            <mxPoint x="240" y="370" as="sourcePoint" />
            <mxPoint x="220" y="369.76" as="targetPoint" />
            <Array as="points">
              <mxPoint x="200" y="370" />
            </Array>
          </mxGeometry>
        </mxCell>
        <mxCell id="_wXYsNPeZPBhzeHZ1bPc-13" value="" style="edgeStyle=orthogonalEdgeStyle;rounded=0;orthogonalLoop=1;jettySize=auto;html=1;entryX=0.5;entryY=0;entryDx=0;entryDy=0;exitX=0;exitY=0.5;exitDx=0;exitDy=0;" edge="1" parent="1" source="_wXYsNPeZPBhzeHZ1bPc-9" target="_wXYsNPeZPBhzeHZ1bPc-8">
          <mxGeometry relative="1" as="geometry">
            <mxPoint x="410" y="210" as="sourcePoint" />
            <mxPoint x="350" y="160" as="targetPoint" />
            <Array as="points">
              <mxPoint x="200" y="210" />
            </Array>
          </mxGeometry>
        </mxCell>
        <mxCell id="_wXYsNPeZPBhzeHZ1bPc-16" value="" style="edgeStyle=orthogonalEdgeStyle;rounded=0;orthogonalLoop=1;jettySize=auto;html=1;" edge="1" parent="1" source="_wXYsNPeZPBhzeHZ1bPc-14" target="_wXYsNPeZPBhzeHZ1bPc-9">
          <mxGeometry relative="1" as="geometry" />
        </mxCell>
        <mxCell id="_wXYsNPeZPBhzeHZ1bPc-14" value="handler" style="rounded=1;whiteSpace=wrap;html=1;fillColor=#dae8fc;strokeColor=#6c8ebf;" vertex="1" parent="1">
          <mxGeometry x="623" y="180" width="120" height="60" as="geometry" />
        </mxCell>
        <mxCell id="_wXYsNPeZPBhzeHZ1bPc-18" value="" style="edgeStyle=orthogonalEdgeStyle;rounded=0;orthogonalLoop=1;jettySize=auto;html=1;" edge="1" parent="1" source="_wXYsNPeZPBhzeHZ1bPc-17" target="_wXYsNPeZPBhzeHZ1bPc-1">
          <mxGeometry relative="1" as="geometry" />
        </mxCell>
        <mxCell id="_wXYsNPeZPBhzeHZ1bPc-17" value="handler" style="rounded=1;whiteSpace=wrap;html=1;fillColor=#dae8fc;strokeColor=#6c8ebf;" vertex="1" parent="1">
          <mxGeometry x="400" y="340" width="120" height="60" as="geometry" />
        </mxCell>
      </root>
    </mxGraphModel>
  </diagram>
</mxfile>
